<svg xmlns="http://www.w3.org/2000/svg" viewBox="0 0 32 32" width="32" height="32">
  <defs>
    <linearGradient id="g" x1="0%" y1="0%" x2="100%" y2="100%">
      <stop offset="0%" stop-color="#6366f1"/>
      <stop offset="100%" stop-color="#8b5cf6"/>
    </linearGradient>
  </defs>
  <!-- Rounded square background -->
  <rect x="1" y="1" width="30" height="30" rx="7" fill="#0f172a" stroke="url(#g)" stroke-width="1.5"/>
  <!-- Pipeline flow: 4 nodes connected by a line -->
  <path d="M 5 16 Q 8 16 10 12 Q 12 8 15 12 Q 18 16 20 12 Q 22 8 25 14" stroke="#a78bfa" stroke-width="1.5" fill="none" stroke-linecap="round"/>
  <circle cx="6" cy="16" r="3" fill="url(#g)"/>
  <rect x="11" y="9" width="6" height="6" rx="1.5" fill="url(#g)" opacity="0.85"/>
  <polygon points="20,9 23,12 20,15 17,12" fill="url(#g)" opacity="0.8"/>
  <path d="M 25 11 L 28 11 L 28 17 Q 28 18 27 18 L 24 18 Q 23 18 23 17 L 23 14" fill="url(#g)" opacity="0.9"/>
</svg>
